
<svg version="1.1" id="Layer_1" xmlns="http://www.w3.org/2000/svg" xmlns:xlink="http://www.w3.org/1999/xlink" x="0px" y="0px"
	 viewBox="0 0 600 900" style="enable-background:new 0 0 600 900;" xml:space="preserve">
<style type="text/css">
	.st0{fill:none;}
	.st1{fill:none;stroke:#000000;stroke-width:17;stroke-miterlimit:10;}
</style>
<g>
		<rect x="43" y="87" class="st0" width="523" height="523"/>
		<path d="M446.1,487.4H162.9c-16.5,0-30-13.4-30-30V239.5c0-16.5,13.4-30,30-30h283.3c16.5,0,30,13.4,30,30v217.9
			C476.1,474,462.7,487.4,446.1,487.4z M162.9,225.9c-7.5,0-13.6,6.1-13.6,13.6v217.9c0,7.5,6.1,13.6,13.6,13.6h283.3
			c7.5,0,13.6-6.1,13.6-13.6V239.5c0-7.5-6.1-13.6-13.6-13.6H162.9z"/>
		<path d="M142.3,460.5c-2.4-0.1-4.6-1.2-6.1-3.1c-2.5-3.3-2.2-8,0.8-10.9l103-90c12-10.6,30.2-9.9,41.3,1.7l72.6,76.3
			c3.6,2.8,4.2,7.9,1.4,11.5c-2.8,3.6-7.9,4.2-11.5,1.4c-0.7-0.6-1.3-1.2-1.8-2l-72.5-76.3c-5.1-5.2-13.3-5.6-18.8-0.9l-102.9,90.1
			C146.2,459.8,144.3,460.5,142.3,460.5z"/>
		<path d="M465.8,463.5c-2.2,0-4.3-0.9-5.8-2.4l-69.6-69.6c-5.4-5.1-13.8-5.1-19.2,0l-34.6,34.6c-3.3,3.1-8.5,2.9-11.5-0.4
			c-2.9-3.1-2.9-8,0-11.1l34.6-34.6c11.9-11.2,30.4-11.2,42.3,0l69.6,69.6c3.2,3.2,3.2,8.4,0,11.5
			C470,462.6,467.9,463.5,465.8,463.5z"/>
		<path d="M348.1,266.8c15,0,27.2,12.2,27.2,27.2c0,15-12.2,27.2-27.2,27.2c-15,0-27.2-12.2-27.2-27.2
			C320.8,279,333,266.8,348.1,266.8 M348.1,250.4c-24.1,0-43.6,19.5-43.6,43.6s19.5,43.6,43.6,43.6s43.6-19.5,43.6-43.6
			S372.2,250.4,348.1,250.4z"/>
</g>
<path class="st1" d="M490.5,588.5h-370c-6.6,0-12-5.4-12-12V197c0-6.6,5.4-12,12-12h370c6.6,0,12,5.4,12,12v379.5
	C502.5,583.1,497.1,588.5,490.5,588.5z"/>
</svg>
